<svg width="129" height="30" viewBox="0 0 129 30" fill="none" xmlns="http://www.w3.org/2000/svg">
    <g clip-path="url(#clip0)">
        <path d="M15.826 29.5894V23.4554L19.7857 24.0357C20.3571 24 20.8571 23.5 20.8571 22.9286V18H22.8929C23.0357 18 23.1429 17.9643 23.1786 17.9643C23.1786 17.9286 23.1429 17.8214 23.0714 17.7143L20.8214 13.4286V11.4286C20.8214 7.82143 18.7143 4.5 15.4286 2.96429C14.1786 2.35714 12.8214 2.07143 11.4286 2.07143C6.28572 2.07143 2.10714 6.25 2.10714 11.3929C2.10714 14.0357 3.21429 16.5357 5.14286 18.3214L5.5 18.6429V23.2143H5.4689V27.3792L3.35714 26.9286V19.5357C1.21429 17.3929 0 14.4643 0 11.4286C0 5.10714 5.14286 0 11.4286 0C13.1429 0 14.7857 0.357143 16.3214 1.10714C20.3571 2.96429 22.9286 7.03571 22.9286 11.4643V12.9286L24.9286 16.75C25.3571 17.5714 25.3571 18.4286 24.9643 19.1071C24.5714 19.75 23.8214 20.1429 22.9286 20.1786V22.9643C22.9286 24.75 21.4643 26.2143 19.6786 26.2143H19.6071L17.75 25.9286V30L15.826 29.5894Z" fill="#0073E7"/>
        <path d="M11.2141 11.0715H9.07129V28.2144H11.2141V11.0715Z" fill="#0073E7"/>
        <path d="M16.2088 17.2296L14.6936 15.7144L9.64284 20.7651L11.1581 22.2804L16.2088 17.2296Z" fill="#0073E7"/>
        <path d="M16.2141 13.679H14.0713V17.2504H16.2141V13.679Z" fill="#0073E7"/>
        <path d="M10.1072 11.4286C8.72647 11.4286 7.60718 10.3093 7.60718 8.92859C7.60718 7.54788 8.72647 6.42859 10.1072 6.42859C11.4879 6.42859 12.6072 7.54788 12.6072 8.92859C12.6072 10.3093 11.4879 11.4286 10.1072 11.4286ZM10.1072 9.64287C10.5017 9.64287 10.8215 9.32308 10.8215 8.92859C10.8215 8.5341 10.5017 8.2143 10.1072 8.2143C9.71269 8.2143 9.39289 8.5341 9.39289 8.92859C9.39289 9.32308 9.71269 9.64287 10.1072 9.64287Z" fill="#0073E7"/>
        <path d="M15.1785 14.4642C13.7978 14.4642 12.6785 13.3449 12.6785 11.9642C12.6785 10.5835 13.7978 9.46423 15.1785 9.46423C16.5592 9.46423 17.6785 10.5835 17.6785 11.9642C17.6785 13.3449 16.5592 14.4642 15.1785 14.4642ZM15.1785 12.6785C15.573 12.6785 15.8928 12.3587 15.8928 11.9642C15.8928 11.5697 15.573 11.2499 15.1785 11.2499C14.784 11.2499 14.4642 11.5697 14.4642 11.9642C14.4642 12.3587 14.784 12.6785 15.1785 12.6785Z" fill="#0073E7"/>
        <path d="M11.2144 28.5714V26.4286H3.35721V28.5714H11.2144Z" fill="#0073E7"/>
        <path d="M33.5923 6.32922H36.9858V24.2858H33.5923V6.32922ZM40.4648 11.0045H43.7852V12.3595C44.542 11.7247 45.2276 11.2832 45.842 11.035C46.4565 10.7868 47.0851 10.6627 47.728 10.6627C49.0464 10.6627 50.1654 11.1225 51.085 12.0421C51.8581 12.8234 52.2446 13.979 52.2446 15.5089V24.2858H48.9487V18.463C48.9487 16.8761 48.8775 15.8222 48.7351 15.3014C48.5927 14.7806 48.3445 14.3838 47.9905 14.1112C47.6365 13.8386 47.1991 13.7023 46.6782 13.7023C46.0028 13.7023 45.4229 13.9281 44.9387 14.3798C44.4545 14.8314 44.1188 15.456 43.9316 16.2535C43.834 16.6686 43.7852 17.5678 43.7852 18.9513V24.2858H40.4648V11.0045ZM65.2817 5.87756H68.6021V24.2858H65.2817V22.882C64.6307 23.5005 63.9776 23.946 63.3225 24.2186C62.6674 24.4913 61.9574 24.6276 61.1924 24.6276C59.4753 24.6276 57.9901 23.9623 56.7368 22.6317C55.4836 21.3011 54.8569 19.6471 54.8569 17.6696C54.8569 15.6188 55.4632 13.9383 56.6758 12.6281C57.8884 11.3178 59.3613 10.6627 61.0947 10.6627C61.8923 10.6627 62.6409 10.8133 63.3408 11.1144C64.0407 11.4155 64.6877 11.8671 65.2817 12.4694V5.87756ZM61.7783 13.7389C60.7448 13.7389 59.8862 14.1031 59.2026 14.8314C58.519 15.5598 58.1772 16.4936 58.1772 17.6329C58.1772 18.7804 58.5251 19.7244 59.2209 20.465C59.9168 21.2055 60.7733 21.5758 61.7905 21.5758C62.8403 21.5758 63.7111 21.2116 64.4028 20.4833C65.0946 19.7549 65.4404 18.8007 65.4404 17.6207C65.4404 16.4651 65.0946 15.5293 64.4028 14.8131C63.7111 14.097 62.8363 13.7389 61.7783 13.7389ZM73.2773 5.53577C73.8633 5.53577 74.3658 5.74735 74.7849 6.17053C75.204 6.59371 75.4136 7.1064 75.4136 7.70862C75.4136 8.3027 75.2061 8.80928 74.791 9.22839C74.376 9.6475 73.8796 9.85706 73.3018 9.85706C72.7077 9.85706 72.2011 9.64344 71.782 9.21619C71.3629 8.78894 71.1533 8.27014 71.1533 7.65979C71.1533 7.07385 71.3608 6.57337 71.7759 6.15833C72.1909 5.74328 72.6914 5.53577 73.2773 5.53577ZM71.605 11.0045H74.9497V24.2858H71.605V11.0045ZM90.9653 13.6901L88.1943 15.2159C87.6735 14.6707 87.1588 14.2923 86.6501 14.0807C86.1415 13.8691 85.5454 13.7633 84.8618 13.7633C83.6167 13.7633 82.6096 14.1356 81.8406 14.8802C81.0715 15.6249 80.687 16.5791 80.687 17.7428C80.687 18.874 81.0573 19.7976 81.7979 20.5138C82.5384 21.2299 83.5109 21.588 84.7153 21.588C86.2046 21.588 87.3643 21.0794 88.1943 20.0621L90.8188 21.8566C89.3947 23.7039 87.3846 24.6276 84.7886 24.6276C82.453 24.6276 80.624 23.9358 79.3015 22.5524C77.9791 21.1689 77.3179 19.5494 77.3179 17.694C77.3179 16.4082 77.6393 15.2241 78.2822 14.1417C78.9251 13.0594 79.8223 12.2089 80.9739 11.5905C82.1254 10.972 83.4132 10.6627 84.8374 10.6627C86.1558 10.6627 87.3398 10.9252 88.3896 11.4501C89.4395 11.975 90.298 12.7216 90.9653 13.6901ZM95.2744 5.53577C95.8604 5.53577 96.3629 5.74735 96.782 6.17053C97.2011 6.59371 97.4106 7.1064 97.4106 7.70862C97.4106 8.3027 97.2031 8.80928 96.7881 9.22839C96.373 9.6475 95.8766 9.85706 95.2988 9.85706C94.7048 9.85706 94.1982 9.64344 93.7791 9.21619C93.3599 8.78894 93.1504 8.27014 93.1504 7.65979C93.1504 7.07385 93.3579 6.57337 93.7729 6.15833C94.188 5.74328 94.6885 5.53577 95.2744 5.53577ZM93.6021 11.0045H96.9468V24.2858H93.6021V11.0045ZM99.9619 11.0045H103.282V12.3595C104.039 11.7247 104.725 11.2832 105.339 11.035C105.954 10.7868 106.582 10.6627 107.225 10.6627C108.543 10.6627 109.662 11.1225 110.582 12.0421C111.355 12.8234 111.742 13.979 111.742 15.5089V24.2858H108.446V18.463C108.446 16.8761 108.375 15.8222 108.232 15.3014C108.09 14.7806 107.842 14.3838 107.488 14.1112C107.134 13.8386 106.696 13.7023 106.175 13.7023C105.5 13.7023 104.92 13.9281 104.436 14.3798C103.952 14.8314 103.616 15.456 103.429 16.2535C103.331 16.6686 103.282 17.5678 103.282 18.9513V24.2858H99.9619V11.0045ZM124.779 11.0045H128.099V24.2858H124.779V22.882C124.128 23.5005 123.475 23.946 122.82 24.2186C122.164 24.4913 121.454 24.6276 120.689 24.6276C118.972 24.6276 117.487 23.9623 116.234 22.6317C114.981 21.3011 114.354 19.6471 114.354 17.6696C114.354 15.6188 114.96 13.9383 116.173 12.6281C117.385 11.3178 118.858 10.6627 120.592 10.6627C121.389 10.6627 122.138 10.8133 122.838 11.1144C123.538 11.4155 124.185 11.8671 124.779 12.4694V11.0045ZM121.275 13.7389C120.242 13.7389 119.383 14.1031 118.7 14.8314C118.016 15.5598 117.674 16.4936 117.674 17.6329C117.674 18.7804 118.022 19.7244 118.718 20.465C119.414 21.2055 120.27 21.5758 121.288 21.5758C122.337 21.5758 123.208 21.2116 123.9 20.4833C124.592 19.7549 124.938 18.8007 124.938 17.6207C124.938 16.4651 124.592 15.5293 123.9 14.8131C123.208 14.097 122.333 13.7389 121.275 13.7389Z" fill="#0073E7"/>
    </g>
    <defs>
        <clipPath id="clip0">
            <rect width="128.214" height="30" fill="white"/>
        </clipPath>
    </defs>
</svg>
