<svg width="694" height="824" viewBox="0 0 694 824" fill="none" xmlns="http://www.w3.org/2000/svg">
<g opacity="0.2">
<path d="M435.105 812.604V644.173L543.832 660.107C559.523 659.127 573.252 645.397 573.252 629.707V494.376H629.149C633.072 494.376 636.014 493.395 636.995 493.395C636.995 492.414 636.014 489.472 634.053 486.53L572.271 368.851V313.934C572.271 214.887 514.412 123.686 424.191 81.5174C389.868 64.8462 352.603 57.0009 314.357 57.0009C173.142 57.0009 58.4049 171.738 58.4049 312.953C58.4049 385.522 88.8054 454.168 141.761 503.202L151.568 512.028V637.552H150.714V751.915L92.728 739.541V536.544C33.8884 477.704 0.545898 397.29 0.545898 313.934C0.545898 140.357 141.761 0.122559 314.357 0.122559C361.429 0.122559 406.539 9.92917 448.708 30.523C559.523 81.5174 630.13 193.313 630.13 314.915V355.122L685.047 460.052C696.815 482.608 696.815 506.144 686.028 524.776C675.241 542.428 654.647 553.215 630.13 554.196V630.688C630.13 679.721 589.923 719.928 540.89 719.928H538.929L487.934 712.082V823.878L435.105 812.604Z" fill="#002C5B"/>
<path d="M308.472 304.124H249.633V774.841H308.472V304.124Z" fill="#002C5B"/>
<path d="M445.616 473.221L404.01 431.615L265.323 570.302L306.929 611.908L445.616 473.221Z" fill="#002C5B"/>
<path d="M445.765 375.72H386.926V473.786H445.765V375.72Z" fill="#002C5B"/>
<path d="M278.074 313.938C240.162 313.938 209.428 283.204 209.428 245.292C209.428 207.379 240.162 176.646 278.074 176.646C315.986 176.646 346.72 207.379 346.72 245.292C346.72 283.204 315.986 313.938 278.074 313.938ZM278.074 264.905C288.906 264.905 297.687 256.124 297.687 245.292C297.687 234.46 288.906 225.679 278.074 225.679C267.242 225.679 258.461 234.46 258.461 245.292C258.461 256.124 267.242 264.905 278.074 264.905Z" fill="#002C5B"/>
<path d="M417.327 397.292C379.415 397.292 348.681 366.558 348.681 328.646C348.681 290.733 379.415 260 417.327 260C455.239 260 485.973 290.733 485.973 328.646C485.973 366.558 455.239 397.292 417.327 397.292ZM417.327 348.259C428.159 348.259 436.94 339.478 436.94 328.646C436.94 317.814 428.159 309.033 417.327 309.033C406.495 309.033 397.714 317.814 397.714 328.646C397.714 339.478 406.495 348.259 417.327 348.259Z" fill="#002C5B"/>
<path d="M308.472 784.655V725.815H92.7263V784.655H308.472Z" fill="#002C5B"/>
</g>
</svg>
